<?xml version="1.0" standalone="no"?>
<!DOCTYPE svg PUBLIC "-//W3C//DTD SVG 20010904//EN"
 "http://www.w3.org/TR/2001/REC-SVG-20010904/DTD/svg10.dtd">
<svg version="1.0" xmlns="http://www.w3.org/2000/svg"
 width="1280.000000pt" height="795.000000pt" viewBox="0 0 1280.000000 795.000000"
 preserveAspectRatio="xMidYMid meet">
<metadata>
Created by potrace 1.15, written by Peter Selinger 2001-2017
</metadata>
<g transform="translate(0.000000,795.000000) scale(0.100000,-0.100000)"
fill="#85a1fc34" stroke="none">
<path d="M9938 7930 c-97 -40 -142 -77 -197 -164 -26 -41 -31 -60 -31 -108 0
-33 -7 -72 -15 -88 -18 -35 -3 -41 29 -11 12 10 46 26 76 35 105 30 157 97
179 231 6 39 14 82 17 98 7 32 4 32 -58 7z"/>
<path d="M10313 7668 c2 -21 -3 -23 -53 -28 l-54 -5 33 -27 c18 -16 39 -28 47
-28 33 0 12 -42 -41 -82 -63 -49 -59 -71 7 -39 25 11 60 21 80 21 74 0 158 50
158 95 0 11 7 30 15 42 14 19 13 22 -12 38 -25 17 -28 17 -60 0 -33 -18 -33
-18 -54 8 -27 35 -70 37 -66 5z"/>
<path d="M9654 7498 c-10 -18 -21 -46 -25 -63 -4 -16 -14 -56 -23 -88 -9 -32
-16 -72 -16 -89 0 -43 -92 -129 -170 -159 -30 -11 -84 -34 -120 -49 -36 -16
-92 -34 -125 -40 -33 -6 -78 -23 -99 -37 -21 -14 -123 -110 -225 -213 -215
-217 -260 -247 -397 -260 l-76 -8 -77 -76 c-52 -52 -86 -78 -109 -82 -24 -5
-30 -10 -22 -19 11 -13 4 -45 -11 -45 -5 0 -32 -29 -61 -65 -28 -36 -58 -65
-65 -65 -17 0 -17 5 6 65 14 39 29 57 65 81 l47 32 -35 6 c-42 8 -40 5 -21 53
8 21 21 66 30 101 16 65 61 168 76 178 5 3 9 12 9 20 0 24 -28 16 -50 -16 -16
-23 -29 -30 -54 -30 l-33 0 10 -40 c13 -48 -2 -135 -38 -216 -25 -57 -35 -64
-55 -39 -12 15 -40 21 -40 8 0 -3 8 -30 17 -59 15 -50 15 -56 0 -91 -9 -21
-22 -60 -27 -88 -12 -52 -54 -135 -70 -135 -5 0 -41 -32 -81 -71 -53 -52 -74
-67 -80 -58 -5 9 -1 26 11 44 54 84 63 111 68 189 5 78 4 79 -44 172 -27 52
-53 94 -59 94 -5 0 -28 -40 -49 -87 -34 -76 -39 -97 -39 -158 1 -75 22 -147
53 -180 11 -11 26 -41 35 -65 l16 -44 -49 -71 c-67 -96 -100 -169 -117 -262
-34 -178 -53 -213 -145 -275 -79 -54 -130 -110 -188 -208 -45 -77 -87 -127
-222 -265 -91 -93 -193 -204 -227 -245 -34 -41 -83 -97 -111 -123 -41 -41 -50
-46 -56 -31 -16 41 22 109 121 219 113 126 203 237 203 249 0 7 -6 20 -13 30
-11 15 -19 8 -72 -70 -32 -48 -100 -128 -151 -178 -50 -50 -102 -110 -113
-134 -12 -24 -35 -51 -52 -60 -34 -20 -35 -22 -9 -64 28 -46 25 -69 -15 -124
-19 -27 -43 -64 -52 -82 -15 -29 -139 -132 -160 -132 -4 0 -32 -16 -62 -36
-83 -56 -148 -81 -235 -89 l-78 -7 -52 -56 c-145 -159 -224 -214 -357 -248
-50 -13 -90 -15 -184 -11 -140 7 -169 20 -169 78 -1 27 -5 34 -21 34 -16 0
-20 -6 -19 -32 2 -30 -1 -34 -40 -44 -22 -6 -51 -15 -64 -20 -15 -6 -38 -3
-70 7 -66 23 -142 62 -142 75 0 20 41 89 107 181 89 124 103 133 123 73 16
-49 31 -44 24 8 -6 42 -6 42 78 123 76 74 89 83 158 103 41 13 88 32 105 44
62 43 160 133 192 179 19 26 51 57 71 70 20 12 55 38 76 58 26 23 66 44 120
61 45 15 81 31 81 35 0 21 -66 13 -137 -16 -117 -46 -117 -46 -111 53 7 93 17
113 131 247 61 72 63 77 58 118 -5 37 1 56 44 141 l49 99 53 15 c129 37 129
37 73 33 -27 -3 -57 -7 -65 -10 -8 -3 -21 -2 -29 3 -26 17 -1 62 84 152 47 49
85 94 85 100 0 12 -60 -39 -125 -105 l-39 -41 -7 69 c-5 65 -8 71 -43 99 -65
52 -76 87 -76 239 1 73 7 169 15 213 9 44 22 125 31 179 15 102 24 126 54 161
17 19 17 21 -1 49 l-18 29 -16 -39 c-9 -21 -20 -70 -26 -109 -10 -72 -29 -169
-55 -285 -8 -36 -16 -93 -17 -126 -2 -34 -8 -68 -14 -76 -9 -11 -9 -23 2 -53
8 -22 14 -53 15 -70 0 -27 13 -79 65 -274 20 -77 15 -138 -17 -190 -29 -45
-61 -114 -100 -213 -36 -90 -70 -128 -125 -135 -38 -5 -42 -3 -87 48 -30 35
-52 72 -62 106 -8 29 -19 55 -24 58 -4 3 -25 52 -45 110 -21 57 -44 110 -52
117 -12 10 -13 7 -8 -18 14 -61 47 -151 72 -193 22 -37 24 -49 16 -72 -9 -24
-7 -33 17 -66 16 -21 32 -51 35 -66 7 -26 6 -27 -33 -27 -24 0 -61 11 -93 27
-49 26 -63 28 -162 28 -128 0 -130 2 -122 95 3 36 8 110 11 165 6 88 10 103
34 135 15 19 30 52 33 74 4 21 8 41 11 44 3 3 33 -1 66 -8 34 -7 78 -10 102
-6 54 8 198 68 197 81 0 6 -30 24 -67 40 -51 23 -80 30 -123 28 l-55 -1 25 51
c21 41 26 67 26 122 0 77 -21 165 -39 165 -23 0 -95 -61 -125 -106 -36 -56
-47 -115 -32 -184 23 -105 3 -238 -42 -288 -17 -18 -22 -41 -27 -110 -4 -48
-12 -100 -18 -115 -8 -19 -9 -41 -3 -68 11 -51 -1 -90 -44 -144 -45 -56 -55
-94 -55 -202 0 -112 -37 -259 -76 -306 -64 -76 -79 -148 -44 -216 l19 -39 -50
-42 c-44 -37 -77 -75 -202 -228 -21 -26 -51 -72 -68 -103 -16 -30 -48 -77 -70
-104 -22 -27 -61 -79 -86 -116 -25 -38 -83 -105 -129 -151 -47 -46 -128 -135
-182 -198 -158 -187 -270 -312 -325 -363 -138 -127 -385 -207 -767 -248 -134
-14 -1447 -28 -1560 -16 -47 4 -154 22 -239 38 -85 16 -236 39 -335 50 -211
23 -261 39 -506 153 -91 43 -203 95 -248 117 -46 21 -90 39 -98 39 -12 0 -14
-56 -14 -348 l0 -348 93 -22 c50 -11 132 -26 182 -32 180 -22 692 -110 785
-135 52 -14 113 -35 135 -46 196 -102 223 -110 435 -129 180 -16 348 -48 395
-73 33 -19 42 -30 52 -69 6 -26 14 -52 18 -58 11 -18 46 -11 77 15 16 14 42
25 56 25 40 0 137 -50 221 -114 60 -45 82 -56 113 -56 43 0 46 -8 23 -63 -19
-47 -19 -57 3 -57 10 0 29 22 48 58 l31 57 89 -3 c113 -4 214 -18 227 -31 14
-14 36 -147 46 -286 8 -106 12 -121 32 -138 14 -11 28 -15 38 -10 9 4 48 8 86
7 77 -1 153 -24 345 -104 63 -26 130 -51 147 -55 24 -5 44 -22 76 -63 47 -62
85 -78 78 -32 -12 75 -10 80 58 121 36 21 72 39 82 39 10 0 42 -28 71 -61 204
-234 229 -259 249 -248 19 10 19 11 2 40 -10 16 -60 82 -111 147 -116 145
-120 152 -98 168 27 19 135 34 297 41 82 3 149 10 149 15 0 34 -96 77 -140 63
-11 -3 -49 1 -86 11 -82 20 -137 15 -228 -23 l-68 -27 -24 29 c-23 28 -56 104
-70 160 l-6 25 106 0 c118 0 276 32 276 57 0 7 -11 13 -26 13 -14 0 -33 4 -42
9 -10 5 -76 14 -149 20 -155 14 -213 25 -654 134 l-337 82 -16 75 c-38 168
-58 220 -87 235 -27 15 -69 60 -69 76 0 5 24 8 53 7 89 -3 307 21 422 47 73
17 136 39 190 67 44 22 110 57 147 76 85 44 139 49 281 27 l112 -17 115 26
c290 67 382 70 710 21 91 -14 182 -25 202 -25 22 0 69 16 119 40 66 32 94 40
139 40 53 0 58 -3 97 -42 51 -52 84 -122 123 -262 55 -194 116 -291 240 -376
81 -56 96 -76 125 -170 32 -101 66 -165 149 -280 34 -47 83 -120 110 -163 46
-75 49 -78 67 -61 10 9 19 23 19 31 0 8 -25 64 -56 124 -31 60 -54 116 -51
123 13 32 113 23 229 -20 76 -29 173 -94 268 -181 77 -70 225 -190 365 -294
55 -41 130 -103 168 -138 51 -48 71 -61 79 -53 9 9 6 17 -9 34 -28 30 -17 50
42 72 36 14 45 22 45 42 0 23 -3 24 -68 24 -66 0 -70 2 -161 61 -214 138 -339
245 -522 447 -27 29 -59 54 -75 58 -143 32 -179 56 -190 123 -9 58 -41 56
-100 -5 -42 -42 -48 -45 -80 -39 -20 3 -47 11 -60 17 -33 15 -64 84 -64 142 0
63 -19 96 -72 125 -81 45 -135 90 -176 150 -54 77 -76 128 -123 291 -40 137
-49 210 -34 297 5 27 1 64 -9 106 -39 155 -15 203 149 308 70 45 134 96 175
140 75 78 94 84 175 49 55 -24 122 -26 172 -5 19 8 57 15 82 15 52 0 68 -13
150 -122 55 -73 182 -195 296 -283 133 -102 245 -197 288 -244 44 -46 50 -48
162 -54 70 -3 89 -9 149 -41 102 -55 170 -104 270 -192 162 -145 251 -215 306
-244 97 -50 154 -94 190 -144 19 -27 49 -65 66 -85 28 -30 34 -33 48 -22 9 8
16 29 16 50 0 50 10 60 66 70 27 5 90 18 139 30 87 20 207 27 252 15 17 -5 28
-24 49 -88 90 -273 263 -455 447 -473 55 -5 70 -2 121 22 47 22 65 26 103 20
129 -19 299 167 364 401 30 107 31 266 2 377 -12 42 -18 79 -14 80 3 2 26 4
51 5 83 4 144 14 240 39 140 36 223 20 296 -59 42 -45 61 -83 74 -148 5 -30
40 -149 76 -265 36 -115 68 -216 70 -222 6 -22 40 -14 52 12 6 14 18 25 26 25
7 0 46 -38 86 -85 l72 -85 -4 -59 c-3 -44 -11 -70 -32 -100 -38 -54 -111 -109
-155 -116 -118 -20 -208 -91 -236 -190 -9 -31 -14 -63 -11 -72 10 -25 112 -12
176 23 52 28 110 87 110 111 0 30 18 10 24 -26 5 -32 18 -51 73 -100 36 -34
71 -60 77 -58 16 6 8 192 -9 235 -8 18 -29 52 -46 74 l-32 40 25 23 c14 13 38
56 53 94 15 39 31 71 35 71 5 0 23 -20 39 -43 16 -24 41 -51 54 -60 44 -29
134 -159 152 -219 9 -32 24 -72 33 -90 12 -25 15 -54 13 -118 -5 -132 6 -270
20 -270 5 0 9 -5 9 -11 0 -6 9 -22 20 -36 17 -21 18 -35 13 -102 -5 -64 -2
-85 14 -122 26 -59 75 -107 144 -143 78 -41 89 -34 89 53 0 129 -64 238 -165
281 -24 10 -54 32 -66 49 -13 17 -28 31 -34 31 -15 0 -29 196 -19 267 7 55
-24 200 -57 265 -21 41 -26 74 -15 99 5 12 -2 20 -26 30 -63 26 -188 159 -188
201 0 14 8 18 36 18 54 0 29 24 -41 39 -31 7 -61 20 -68 28 -7 9 -38 42 -69
73 -38 38 -60 70 -67 97 -6 22 -18 47 -27 54 -32 26 -78 104 -96 161 -21 70
-26 282 -6 294 21 13 179 16 246 4 89 -15 143 -40 204 -95 28 -25 55 -45 62
-45 22 0 183 -77 261 -125 132 -80 215 -121 305 -148 64 -20 93 -35 119 -61
18 -18 48 -42 67 -52 24 -13 39 -31 51 -64 9 -25 36 -67 61 -93 55 -60 103
-163 136 -292 14 -55 36 -132 49 -171 26 -73 115 -222 173 -286 53 -59 64 -97
57 -186 -5 -63 -2 -84 12 -112 41 -80 99 -132 173 -158 29 -10 35 -9 54 10 47
47 -2 212 -88 286 -24 22 -57 42 -73 45 -22 5 -40 22 -70 66 -23 33 -46 63
-52 67 -21 12 -111 159 -150 243 -44 96 -61 182 -57 292 l3 74 33 3 c28 3 41
-5 96 -58 49 -47 66 -71 75 -106 14 -56 36 -60 27 -5 -4 27 -2 41 7 44 7 3 0
15 -20 32 -37 30 -43 55 -13 55 11 0 20 5 20 10 0 6 -10 10 -23 10 -13 0 -32
6 -43 14 -15 12 -17 19 -8 32 23 39 63 58 128 62 86 6 92 23 19 53 l-55 22
-67 -20 c-102 -32 -119 -34 -164 -22 -50 13 -147 104 -147 137 0 21 4 22 120
22 72 0 120 4 120 10 0 11 -15 15 -140 30 -60 7 -116 21 -152 37 -54 24 -58
28 -58 59 0 20 -17 66 -41 113 -40 77 -41 78 -25 110 10 19 38 43 71 62 30 17
55 35 55 40 0 16 29 10 82 -18 69 -36 162 -38 228 -3 53 27 172 130 167 144
-5 16 -116 38 -197 40 -98 1 -151 -19 -215 -84 -27 -28 -54 -50 -61 -50 -6 0
-17 -7 -24 -15 -18 -21 -41 -19 -47 5 -6 24 -21 25 -47 5 -27 -20 -147 -20
-217 1 -73 21 -134 57 -190 111 -41 39 -49 44 -68 34 -16 -9 -39 -8 -94 2 -81
15 -85 15 -249 -3 -104 -12 -124 -12 -192 3 -42 9 -102 17 -134 17 -31 0 -88
7 -127 16 -119 28 -118 27 -48 63 34 17 77 32 95 33 56 2 172 -14 200 -28 19
-10 68 -14 163 -14 151 0 173 6 255 75 90 75 184 105 335 105 82 0 261 -19
290 -30 38 -16 160 -21 215 -9 47 10 63 19 110 69 30 32 69 65 85 73 17 8 41
27 54 41 l24 26 49 -45 c56 -53 119 -83 191 -91 64 -7 93 10 84 48 -10 40 -78
108 -122 123 l-40 13 45 20 c81 36 147 131 153 219 2 37 1 38 -36 41 -92 8
-196 -58 -236 -149 -48 -108 -62 -134 -81 -157 -21 -26 -171 -92 -207 -92 -13
0 -54 -11 -91 -23 -137 -48 -215 -61 -289 -49 -97 16 -173 41 -179 58 -2 7 -6
21 -9 29 -4 13 -14 9 -54 -19 -34 -23 -75 -39 -128 -51 -100 -22 -127 -34
-188 -81 -48 -37 -54 -39 -145 -46 -52 -4 -118 -10 -147 -14 -39 -5 -81 0
-174 21 -140 32 -123 33 -389 -28 -85 -20 -188 -47 -229 -61 -41 -14 -78 -26
-83 -26 -14 0 -9 144 7 196 37 122 5 272 -85 401 -40 57 -50 80 -50 112 0 22
-9 63 -20 91 -25 63 -25 70 -2 70 11 0 27 9 37 20 18 20 17 20 -12 20 -31 0
-31 0 -38 68 -6 64 -5 71 23 118 63 103 53 114 -52 60 -63 -33 -71 -35 -160
-33 -87 2 -97 4 -123 28 -27 26 -65 49 -79 49 -3 0 -4 -44 0 -97 7 -109 0
-151 -30 -167 -10 -6 -21 -12 -23 -14 -3 -1 6 -13 18 -26 21 -22 22 -30 16
-93 -3 -37 -11 -94 -16 -127 -7 -40 -7 -92 1 -166 11 -100 10 -111 -8 -147
-36 -70 -45 -117 -51 -273 l-6 -155 -65 -5 c-65 -6 -91 -16 -177 -70 -66 -42
-73 -40 -73 23 0 74 -24 176 -55 235 -25 48 -26 54 -15 110 12 56 7 149 -17
352 -5 39 -2 46 23 66 l28 23 -25 10 c-37 13 -56 84 -40 145 12 48 15 126 5
126 -3 0 -31 -18 -63 -40 -56 -40 -58 -40 -149 -40 -86 0 -96 2 -158 35 -36
19 -70 32 -75 29 -13 -8 -3 -39 31 -95 25 -42 28 -53 23 -108 -5 -55 -8 -61
-29 -61 -29 0 -38 -14 -25 -38 7 -14 18 -18 36 -15 29 6 33 -12 10 -43 -8 -11
-14 -42 -15 -75 0 -51 -5 -64 -47 -125 -96 -140 -133 -285 -103 -401 17 -68
23 -335 7 -345 -25 -16 -163 -8 -222 12 -63 22 -96 44 -191 130 -34 30 -111
86 -172 123 -76 47 -117 79 -131 103 -28 48 -66 68 -228 120 -99 32 -170 62
-235 101 -109 64 -218 141 -218 153 0 15 -88 67 -137 80 -62 18 -175 128 -222
218 -18 34 -50 83 -72 108 -54 62 -63 82 -48 100 6 8 26 14 44 14 29 0 36 6
69 63 54 91 122 165 139 152 8 -5 61 -41 118 -79 179 -119 197 -135 286 -259
83 -116 182 -210 264 -252 38 -20 37 -6 -2 31 -17 16 -69 83 -116 149 -47 66
-107 146 -132 178 -39 50 -173 164 -272 232 -16 11 -27 25 -25 30 5 16 136 10
192 -9 28 -9 78 -33 110 -53 42 -25 75 -37 112 -41 60 -5 71 10 19 27 -18 6
-48 27 -66 45 -18 19 -61 46 -95 61 -103 44 -110 50 -116 92 -11 73 -34 82
-77 28 -25 -31 -33 -35 -76 -35 -64 0 -76 8 -135 87 -28 38 -63 80 -79 95 -58
56 -239 121 -374 134 -47 4 -73 12 -76 21 -4 9 13 34 41 62 l47 48 142 2 c180
2 252 11 252 31 0 12 -22 17 -100 23 -120 11 -184 26 -198 49 -13 19 47 97
206 270 55 59 109 120 121 136 22 31 200 234 252 289 26 27 40 33 74 33 36 0
50 -6 85 -39 56 -52 130 -70 210 -52 60 13 195 77 195 91 0 17 -67 60 -126 81
-47 16 -77 20 -146 17 -79 -4 -91 -7 -132 -36 -24 -18 -56 -32 -70 -32 -14 0
-26 -5 -26 -11 0 -5 -5 -7 -10 -4 -7 4 3 25 24 53 20 26 66 92 103 146 37 54
76 101 86 104 11 3 40 16 64 29 24 12 49 23 55 23 6 0 31 -19 56 -41 l45 -42
79 6 c67 6 90 3 156 -18 42 -14 91 -25 107 -25 36 0 126 -41 167 -75 23 -19
41 -25 79 -25 27 0 58 -6 69 -12 17 -11 27 -9 68 13 26 15 87 41 135 59 49 17
131 54 183 81 115 60 156 64 179 18 12 -22 21 -29 33 -24 38 16 74 24 137 30
63 7 68 6 96 -21 33 -32 48 -27 25 9 -15 22 -15 26 6 52 18 23 19 28 5 22 -42
-16 -191 -38 -219 -32 -17 4 -49 16 -72 26 -22 10 -60 19 -83 19 -51 0 -166
-50 -251 -110 -57 -40 -64 -42 -169 -53 -126 -12 -171 -2 -206 45 -29 39 -17
69 48 113 30 21 61 48 68 59 22 33 67 173 67 206 0 16 7 47 16 69 12 31 24 42
60 56 63 24 157 114 196 188 46 87 149 189 212 210 68 23 72 22 93 -20 16 -33
24 -39 60 -44 25 -3 53 -15 68 -29 14 -13 25 -18 25 -12 0 19 39 14 76 -9 l33
-20 56 41 c30 22 62 52 71 65 18 28 14 27 177 52 93 14 117 21 117 34 0 9 11
21 24 27 22 10 29 6 78 -42 61 -61 140 -96 218 -96 57 0 61 9 31 68 -27 53
-65 90 -112 111 l-41 18 35 7 c42 8 107 50 138 90 12 16 33 57 46 93 27 76 24
79 -67 70 -114 -12 -190 -68 -226 -163 -37 -101 -124 -165 -267 -199 -61 -14
-80 -16 -90 -6 -9 10 -8 15 8 26 59 41 105 78 101 82 -8 8 -46 -17 -111 -73
l-64 -54 -93 0 c-71 0 -111 6 -171 25 -157 50 -222 29 -371 -121 -23 -23 -51
-47 -64 -53 -12 -7 -34 -39 -50 -74 -46 -99 -146 -178 -191 -150 -9 5 -22 27
-29 48 -13 39 -29 65 -41 65 -3 0 -5 -35 -3 -78 3 -67 0 -89 -22 -144 -14 -35
-26 -84 -26 -109 0 -83 -106 -220 -182 -234 -19 -4 -97 2 -173 13 -148 21
-179 35 -204 88 -7 16 -24 41 -38 55 l-24 26 31 93 c37 112 44 126 81 165 19
21 32 49 39 85 6 29 21 72 34 94 35 60 298 305 339 317 28 7 47 28 107 116
124 181 154 205 330 269 57 21 136 55 174 74 62 31 78 45 138 125 101 134 126
162 202 226 41 35 65 46 116 58 27 6 46 6 54 0 6 -6 26 -19 44 -30 33 -20 36
-23 46 -72 10 -42 70 -102 129 -128 41 -18 71 -23 144 -23 50 -1 95 2 99 7 10
10 -82 143 -121 172 -47 36 -109 55 -182 55 -64 0 -134 24 -117 40 5 4 47 28
93 51 l83 44 143 1 c79 1 165 5 192 9 26 5 58 7 71 6 12 -1 22 2 22 8 0 6 11
11 25 11 14 0 25 5 25 11 0 8 -12 9 -37 5 -111 -20 -159 -24 -257 -19 -58 3
-109 10 -112 14 -2 5 13 20 35 33 30 19 42 35 49 63 36 151 56 224 73 262 22
50 22 51 9 51 -5 0 -17 -15 -26 -32z m-611 -1538 c55 -11 110 -17 132 -13 33
5 37 4 33 -13 -2 -10 -20 -28 -40 -39 l-36 -19 -79 23 c-107 32 -143 48 -143
66 0 20 18 19 133 -5z m-3111 -467 c14 -13 18 -31 18 -92 0 -95 -19 -85 -30
17 -4 38 -11 75 -14 81 -11 17 5 13 26 -6z m-543 -667 c42 -18 97 -41 122 -50
49 -18 69 -45 69 -96 0 -39 -74 -174 -108 -196 -35 -23 -48 -41 -61 -86 -13
-40 -88 -115 -145 -142 -19 -9 -50 -16 -70 -16 -45 0 -88 -18 -157 -64 -63
-42 -85 -45 -101 -11 -9 21 -6 38 22 107 75 191 82 218 90 348 4 69 13 137 20
151 17 36 129 87 194 88 35 1 70 -8 125 -33z m996 -1079 c39 -8 88 -23 110
-34 22 -11 51 -24 64 -28 65 -20 233 -155 244 -195 6 -25 -74 -144 -151 -223
-79 -82 -81 -82 -159 -56 -77 25 -154 23 -245 -8 l-56 -19 -74 38 c-40 21 -82
38 -94 38 -25 0 -84 38 -139 90 -22 20 -55 46 -72 56 -18 10 -33 23 -33 29 0
15 54 100 96 151 43 53 176 131 262 155 81 22 154 23 247 6z m-1421 -377 c14
-5 26 -16 26 -24 0 -8 -37 -70 -82 -138 -103 -155 -308 -366 -404 -416 -72
-37 -125 -41 -154 -12 -25 25 -25 26 7 96 37 82 88 155 177 254 73 81 136 183
136 221 0 16 11 19 98 22 53 1 114 4 134 5 20 1 48 -2 62 -8z m171 -35 c33 -9
145 -23 249 -31 224 -17 295 -32 388 -81 73 -38 133 -87 124 -101 -3 -5 -38
-25 -79 -45 -55 -27 -103 -64 -191 -146 -64 -61 -144 -129 -177 -152 -83 -56
-241 -130 -374 -176 -103 -35 -118 -37 -235 -37 -117 -1 -129 1 -185 27 -66
31 -105 63 -105 85 0 8 32 49 72 91 147 157 269 325 376 515 33 59 47 76 60
72 9 -3 44 -12 77 -21z m7055 -835 c-20 -14 -120 -43 -126 -37 -6 6 96 45 121
46 17 1 17 -1 5 -9z m-744 -445 c29 -19 116 -68 195 -110 201 -108 282 -189
213 -215 -37 -14 -173 25 -299 86 -87 42 -111 60 -182 134 -46 47 -83 93 -83
103 0 22 56 48 85 41 11 -3 43 -21 71 -39z m-8873 20 c23 -10 32 -51 18 -82
-11 -23 -8 -30 37 -82 72 -82 139 -229 115 -251 -7 -7 -120 17 -237 50 -23 7
-64 35 -105 73 -37 34 -92 83 -122 108 -58 50 -128 154 -113 169 25 25 354 37
407 15z m7222 -18 c24 -38 55 -175 55 -246 0 -95 -24 -194 -68 -286 -46 -94
-124 -195 -153 -195 -10 0 -19 3 -19 6 0 11 24 50 55 89 71 87 106 191 91 269
-8 44 -59 104 -103 122 -63 27 -149 10 -201 -39 -21 -19 -25 -20 -55 -8 -39
17 -109 25 -141 17 -98 -24 -156 -173 -109 -274 21 -45 117 -139 196 -193 60
-42 65 -59 18 -59 -90 0 -201 72 -286 185 -43 58 -145 266 -145 297 0 24 41
55 101 77 32 12 69 36 87 55 40 44 94 69 280 128 234 75 241 77 314 77 60 1
69 -2 83 -22z m-7035 -71 c39 -36 82 -78 96 -95 33 -39 92 -168 100 -219 5
-35 4 -41 -14 -47 -50 -15 -132 19 -132 55 0 17 -69 155 -100 200 -22 31 -53
138 -46 156 9 24 24 16 96 -50z m6879 -272 c27 -22 31 -33 31 -73 0 -37 -8
-61 -37 -109 -61 -99 -131 -192 -147 -192 -20 0 -130 84 -208 160 -60 58 -68
70 -68 104 0 81 101 128 153 72 12 -13 30 -35 40 -50 10 -14 25 -26 34 -26 26
0 53 31 53 61 0 35 50 79 90 79 16 0 42 -11 59 -26z m-6407 -265 c34 -11 77
-22 93 -25 112 -19 356 -94 435 -134 47 -24 65 -45 88 -108 11 -29 32 -69 47
-88 14 -19 25 -42 23 -52 -2 -9 -23 -27 -48 -40 -39 -20 -57 -23 -130 -20 -81
3 -91 6 -205 62 -66 32 -163 70 -215 85 -52 14 -103 31 -113 37 -18 10 -29 46
-72 229 -8 33 -14 63 -15 68 0 13 47 7 112 -14z"/>
<path d="M5731 6755 c-19 -105 -10 -190 25 -255 16 -29 39 -60 52 -69 13 -9
33 -24 44 -34 27 -26 37 -19 64 43 47 111 21 210 -83 321 -36 38 -71 69 -77
69 -7 0 -18 -32 -25 -75z"/>
<path d="M11558 6536 c-29 -31 -34 -33 -65 -24 -44 12 -67 -4 -58 -41 21 -94
60 -122 161 -119 48 1 79 -3 101 -15 18 -9 39 -17 48 -17 25 0 12 23 -22 40
-45 23 -83 56 -83 74 0 8 10 20 23 27 21 11 56 48 57 60 0 3 -25 4 -55 1 -54
-4 -55 -4 -55 22 0 35 -13 33 -52 -8z"/>
<path d="M10995 6295 l-42 -45 -42 17 -42 16 -32 -32 c-29 -29 -30 -33 -14
-42 9 -5 17 -20 17 -32 0 -38 38 -87 83 -107 32 -15 65 -20 138 -20 83 0 102
-3 144 -25 26 -14 50 -24 52 -21 13 13 -11 43 -51 64 -24 13 -59 39 -77 59
l-34 35 30 22 c36 26 85 77 85 89 0 5 -33 7 -72 6 l-73 -2 3 32 c3 45 -23 40
-73 -14z"/>
<path d="M6785 6203 l0 -28 -72 1 c-40 1 -73 -2 -73 -6 0 -16 52 -71 81 -86
16 -8 29 -20 29 -27 -1 -17 -84 -86 -120 -98 -19 -7 -30 -18 -30 -30 0 -22 23
-25 39 -5 19 23 93 34 156 24 75 -11 130 4 172 49 18 19 33 44 33 56 0 28 10
41 35 51 19 7 18 9 -13 37 -35 32 -67 36 -96 14 -29 -22 -44 -18 -61 15 -12
24 -59 60 -77 60 -2 0 -4 -12 -3 -27z"/>
<path d="M9718 5288 l-3 -33 -68 -5 -69 -5 21 -27 c12 -14 41 -36 66 -48 28
-14 45 -28 45 -40 0 -16 -53 -71 -113 -115 -21 -15 -25 -24 -17 -35 8 -13 13
-13 37 3 58 38 114 58 177 64 36 3 79 14 96 24 39 24 70 75 70 115 0 17 7 37
15 44 14 12 14 15 -1 31 -21 23 -86 26 -104 4 -19 -23 -42 -18 -70 14 -14 17
-37 33 -52 36 -24 6 -27 4 -30 -27z"/>
<path d="M9130 5008 c-5 -164 5 -202 72 -264 54 -51 168 -118 180 -106 16 16
-7 192 -32 244 -32 64 -87 115 -141 133 -26 9 -50 23 -53 31 -12 30 -25 12
-26 -38z"/>
<path d="M11813 4415 c-20 -8 -40 -29 -53 -54 -11 -23 -24 -41 -28 -41 -4 0
-25 12 -47 25 -53 33 -75 31 -113 -8 -38 -39 -39 -43 -12 -50 15 -4 20 -14 20
-42 0 -51 32 -100 87 -132 39 -22 61 -27 153 -33 97 -5 116 -10 179 -41 61
-30 71 -33 71 -18 0 10 6 19 13 22 6 2 -6 13 -28 25 -41 21 -175 130 -175 141
1 3 28 22 61 41 33 19 69 50 80 68 l21 32 -95 0 -96 0 10 32 c15 55 10 58 -48
33z"/>
<path d="M7445 3896 c-94 -30 -131 -63 -161 -144 -10 -26 -32 -67 -49 -92 -26
-37 -30 -50 -23 -70 21 -58 96 -111 193 -136 57 -16 135 -18 135 -5 0 5 -22
42 -49 83 -33 51 -58 79 -80 88 l-32 13 49 28 c64 36 117 98 142 166 30 80 29
83 -32 82 -29 0 -71 -6 -93 -13z"/>
<path d="M7930 3795 c0 -25 -7 -28 -73 -40 -39 -6 -39 -6 -20 -27 10 -11 33
-27 51 -35 17 -7 32 -18 32 -24 0 -7 -20 -32 -45 -57 -29 -28 -44 -51 -40 -60
4 -12 11 -10 33 11 23 22 38 27 78 27 89 1 174 58 174 119 0 15 5 32 11 38 8
8 4 15 -12 27 -30 20 -49 20 -78 0 -22 -16 -25 -16 -40 4 -9 12 -28 26 -43 31
-26 10 -28 9 -28 -14z"/>
<path d="M7309 491 c-20 -22 -44 -62 -54 -91 -19 -59 -26 -221 -9 -227 5 -2
38 22 72 53 47 42 65 66 75 101 l13 45 29 -47 c23 -35 44 -53 90 -75 70 -35
152 -53 177 -39 16 8 16 13 2 62 -31 106 -117 189 -212 203 -26 4 -65 17 -88
30 -22 13 -44 24 -49 24 -4 0 -25 -18 -46 -39z"/>
</g>
</svg>
